<?xml version="1.0" standalone="no"?>
<!DOCTYPE svg PUBLIC "-//W3C//DTD SVG 20010904//EN"
 "http://www.w3.org/TR/2001/REC-SVG-20010904/DTD/svg10.dtd">
<svg version="1.0" xmlns="http://www.w3.org/2000/svg"
 width="768.000000pt" height="768.000000pt" viewBox="0 0 768.000000 768.000000"
 preserveAspectRatio="xMidYMid meet">
<metadata>
Created by potrace 1.14, written by Peter Selinger 2001-2017
</metadata>
<g transform="translate(0.000000,768.000000) scale(0.100000,-0.100000)"
fill="#000000" stroke="none">
<path d="M3908 7095 c-12 -22 -23 -42 -23 -45 -1 -3 -19 -39 -40 -80 -22 -41
-45 -88 -53 -105 -7 -16 -16 -32 -20 -35 -8 -6 -45 -81 -46 -93 -1 -4 -7 -11
-14 -16 -8 -5 -13 -11 -12 -15 2 -7 -39 -92 -53 -111 -5 -5 -42 -75 -82 -155
-41 -80 -91 -176 -110 -215 -20 -38 -62 -119 -95 -180 -32 -60 -87 -166 -122
-235 -34 -69 -65 -127 -68 -130 -8 -8 -67 -118 -112 -210 -24 -47 -45 -87 -48
-90 -3 -3 -24 -43 -48 -90 -39 -77 -74 -142 -141 -262 -35 -62 -48 -89 -60
-120 -6 -16 -15 -28 -20 -28 -8 0 -24 -37 -22 -52 1 -5 -3 -8 -9 -8 -5 0 -10
-7 -10 -16 0 -8 -12 -36 -27 -62 -38 -67 -63 -119 -63 -132 0 -5 -4 -10 -9
-10 -5 0 -24 -30 -43 -67 -18 -38 -39 -74 -46 -81 -7 -8 -10 -17 -7 -22 3 -5
2 -10 -2 -12 -5 -1 -24 -34 -43 -73 -18 -38 -37 -72 -41 -75 -10 -7 -84 -164
-81 -172 1 -5 -2 -8 -7 -8 -5 0 -17 -23 -26 -51 -10 -28 -23 -53 -31 -56 -8
-3 -11 -9 -8 -14 3 -5 1 -9 -4 -9 -9 0 -23 -34 -19 -45 1 -2 -7 -11 -18 -19
-11 -9 -17 -16 -12 -16 4 0 -3 -17 -16 -37 -13 -21 -27 -49 -31 -63 -8 -27
-38 -92 -46 -100 -3 -3 -12 -18 -20 -35 -21 -43 -63 -109 -75 -117 -5 -4 -7
-8 -3 -8 4 0 -8 -28 -27 -62 -34 -61 -76 -145 -99 -198 -6 -14 -17 -31 -24
-39 -7 -7 -20 -31 -29 -52 -8 -22 -18 -39 -22 -39 -4 0 -13 -17 -20 -37 -7
-21 -20 -49 -29 -63 -9 -14 -17 -31 -18 -38 -1 -7 -15 -34 -30 -60 -34 -55
-85 -159 -83 -168 0 -4 -3 -10 -8 -13 -6 -3 -24 -37 -42 -76 -18 -38 -38 -73
-45 -77 -6 -4 -8 -8 -4 -8 7 0 -71 -151 -83 -160 -8 -6 -24 -52 -21 -62 1 -5
-2 -8 -6 -8 -4 0 -26 -37 -47 -82 -22 -46 -46 -88 -53 -93 -7 -6 -14 -17 -15
-25 -2 -8 -5 -19 -9 -25 -3 -5 -43 -82 -88 -170 -45 -88 -87 -163 -94 -167 -6
-4 -8 -8 -4 -8 4 0 -4 -16 -17 -36 -14 -20 -25 -43 -25 -50 0 -8 -4 -14 -10
-14 -5 0 -10 -7 -10 -16 0 -15 -37 -89 -73 -145 -8 -13 -18 -34 -22 -47 -3
-12 -26 -53 -51 -90 -24 -37 -44 -71 -44 -75 0 -5 -9 -21 -20 -37 -11 -15 -17
-30 -13 -34 3 -3 1 -6 -5 -6 -7 0 -11 -3 -10 -7 1 -5 -5 -24 -14 -44 -9 -20
-19 -45 -22 -57 -4 -12 -11 -22 -15 -22 -5 0 -11 -14 -15 -31 -3 -17 -10 -28
-16 -24 -6 4 -10 3 -9 -2 3 -18 -2 -32 -15 -45 -12 -13 -49 -77 -51 -88 0 -3
-4 -10 -8 -17 -4 -6 -8 -23 -9 -37 -1 -14 -6 -26 -11 -26 -4 0 -5 -4 -2 -10 3
-5 2 -18 -4 -27 -9 -17 44 -18 1156 -18 982 1 1165 3 1173 14 11 19 110 22
131 4 12 -10 352 -13 1870 -15 1020 -2 1860 1 1867 5 10 7 9 14 -2 35 -14 26
-28 61 -30 73 -1 5 -25 55 -98 204 -17 33 -31 67 -33 77 -2 9 -24 61 -50 115
-68 144 -81 173 -100 225 -9 26 -21 50 -26 53 -5 4 -9 15 -9 26 0 10 -5 19
-11 19 -5 0 -7 5 -4 10 4 6 -1 22 -9 35 -9 14 -13 25 -9 25 5 0 3 4 -3 8 -9 6
-73 133 -129 257 -14 31 -27 68 -25 73 0 1 -6 10 -15 18 -8 9 -15 21 -16 27
-2 30 -9 50 -22 65 -14 17 -58 110 -54 115 1 2 -6 15 -16 30 -9 15 -15 27 -13
27 3 0 -8 28 -24 62 -17 35 -30 71 -30 80 0 9 -5 20 -10 23 -6 4 -8 10 -5 15
3 4 -1 13 -9 19 -8 7 -17 23 -20 36 -4 14 -11 25 -16 25 -6 0 -10 9 -10 20 0
11 -4 20 -10 20 -5 0 -10 4 -10 9 0 5 -12 35 -27 67 -15 33 -28 68 -28 78 -1
11 -7 22 -13 24 -7 2 -12 10 -12 19 0 8 -9 28 -20 43 -11 16 -19 32 -18 37 1
4 -8 27 -20 49 -11 23 -18 44 -15 48 4 3 2 6 -4 6 -7 0 -64 106 -69 130 -2 12
-26 65 -55 123 -17 34 -30 63 -29 65 1 1 -7 22 -18 45 -11 23 -27 60 -37 82
-9 22 -30 67 -45 100 -113 241 -155 335 -181 405 -7 19 -24 53 -38 75 -13 22
-24 41 -23 42 2 4 -27 73 -65 153 -19 41 -43 95 -53 120 -10 25 -34 78 -54
117 -20 40 -36 74 -36 76 0 2 -14 35 -32 73 -17 38 -32 71 -33 74 -1 3 -8 19
-15 35 -7 17 -14 36 -16 43 -1 8 -9 21 -17 30 -8 10 -18 28 -22 42 -20 65
-145 320 -157 320 -5 0 -7 4 -4 8 6 10 -37 119 -78 199 -14 29 -26 55 -26 58
0 5 -34 82 -84 190 -18 39 -39 87 -47 108 -7 20 -17 37 -21 37 -4 0 -8 8 -8
18 0 10 -8 29 -17 42 -10 14 -17 26 -16 27 1 2 -6 22 -16 45 -10 24 -24 61
-31 83 -7 22 -18 47 -24 55 -21 28 -36 60 -36 75 0 8 -4 15 -10 15 -5 0 -9 3
-8 8 1 4 -10 32 -24 62 -14 30 -29 66 -33 80 -12 40 -54 128 -64 135 -5 3 -13
20 -16 38 -4 17 -12 41 -18 52 -6 11 -12 22 -12 25 0 3 -9 17 -19 32 -19 30
-106 225 -106 240 0 5 -7 16 -15 24 -8 9 -15 24 -15 35 0 10 -4 19 -10 19 -5
0 -10 9 -10 19 0 11 -4 23 -10 26 -5 3 -10 15 -10 26 0 10 -4 19 -9 19 -9 0
-26 48 -23 63 1 4 -3 7 -10 7 -6 0 -8 3 -5 7 4 3 1 13 -5 21 -7 8 -13 20 -14
26 0 6 -6 26 -13 43 -18 47 -52 42 -83 -12z"/>
</g>
</svg>
